<?xml version="1.0" encoding="utf-8"?><svg viewBox="0 0 586 498" xmlns="http://www.w3.org/2000/svg" xmlns:xlink="http://www.w3.org/1999/xlink"><style>:root>svg{display:none}:root>svg:target{display:block}</style><svg viewBox="0 0 24 24" id="Apple" xmlns="http://www.w3.org/2000/svg"><path d="M17.87 12.731c-.027-2.905 2.415-4.319 2.527-4.385-1.383-1.986-3.527-2.257-4.28-2.279-1.801-.187-3.548 1.061-4.465 1.061-.935 0-2.348-1.043-3.87-1.012-1.96.03-3.792 1.147-4.797 2.881-2.074 3.537-.527 8.734 1.46 11.593.994 1.4 2.156 2.964 3.676 2.909 1.488-.06 2.043-.934 3.839-.934 1.778 0 2.3.934 3.85.898 1.597-.025 2.602-1.406 3.562-2.819 1.148-1.604 1.61-3.185 1.628-3.266-.038-.013-3.1-1.164-3.13-4.647zm-2.93-8.545c.8-.985 1.348-2.326 1.196-3.686-1.158.05-2.606.789-3.44 1.753-.738.849-1.397 2.24-1.227 3.55 1.3.095 2.636-.646 3.471-1.617z"/></svg><svg viewBox="0 0 24 24" id="Google" xmlns="http://www.w3.org/2000/svg"><path d="M1.899 1.62c-.253.259-.399.66-.399 1.18v18.544c0 .52.146.92.399 1.179l.062.056L12.62 12.192v-.245L1.96 1.56l-.062.06zm15.558 14.036l-3.548-3.464v-.245l3.553-3.464.08.045 4.207 2.334c1.2.662 1.2 1.753 0 2.42l-4.208 2.33-.084.044zm-.561.6l-3.632-3.541-10.72 10.453c.399.409 1.05.458 1.789.049l12.563-6.96zm0-8.373L4.333.923c-.74-.405-1.39-.356-1.789.053l10.72 10.449 3.632-3.542z"/></svg><svg viewBox="0 0 100 100" id="about-1" xmlns="http://www.w3.org/2000/svg"><path d="M39.484 18.672c1.61-4.353 7.767-4.353 9.378 0l6.444 17.414a5 5 0 002.954 2.954l17.413 6.444c4.353 1.61 4.353 7.767 0 9.378L58.26 61.306a5 5 0 00-2.954 2.954l-6.444 17.413c-1.61 4.353-7.768 4.353-9.378 0L33.04 64.26a5 5 0 00-2.954-2.954l-17.413-6.444c-4.354-1.61-4.354-7.768 0-9.378l17.413-6.444a5 5 0 002.954-2.954l6.444-17.413z"/></svg><svg viewBox="0 0 100 100" id="about-2" xmlns="http://www.w3.org/2000/svg"><path d="M28.538 91.46C.136 81.13 8.376 56.697 31.036 49.51c28.326-8.982 26.6 26.511-.101 17.658-43.352-14.374-13.829-48.39 9.03-49.47"/><path d="M31.815 8.008l12.74 5.723-5.724 12.74"/></svg><svg viewBox="0 0 100 101" id="about-3" xmlns="http://www.w3.org/2000/svg"><path d="M5.227 69.18l17.846-38.356L40.92 69.179l17.846-38.355 17.846 38.355 17.846-38.355"/></svg><svg viewBox="0 0 101 100" id="about-4" xmlns="http://www.w3.org/2000/svg"><rect x="5.706" y="29.851" width="55.876" height="29.346" rx="14.673"/><rect x="37.089" y="46.966" width="55.876" height="29.346" rx="14.673" transform="rotate(-22.192 37.09 46.966)"/></svg><svg viewBox="0 0 418 485" id="about_bg" xmlns="http://www.w3.org/2000/svg"><path opacity=".7" d="M3.333 342H61.5c70.969 0 128.5-57.531 128.5-128.5S132.469 85 61.5 85H-230M-73 598h278c70.692 0 128-57.308 128-128 0-70.692-57.308-128-128-128H-73"/></svg><svg viewBox="0 0 194 57" id="appStore" xmlns="http://www.w3.org/2000/svg"><path d="M194 51.286c0 3.157-2.497 5.714-5.586 5.714H5.594C2.506 57 0 54.443 0 51.286V5.721C0 2.566 2.506 0 5.594 0h182.818c3.091 0 5.587 2.566 5.587 5.721L194 51.286z"/><path d="M42.692 26.696c-.043-4.521 3.834-6.721 4.012-6.824-2.196-3.09-5.6-3.512-6.795-3.546-2.859-.29-5.631 1.651-7.087 1.651-1.486 0-3.728-1.623-6.145-1.575-3.11.046-6.019 1.784-7.614 4.483-3.293 5.504-.837 13.592 2.318 18.04 1.578 2.18 3.422 4.612 5.836 4.527 2.361-.094 3.243-1.454 6.093-1.454 2.823 0 3.652 1.454 6.113 1.399 2.535-.04 4.13-2.189 5.653-4.387 1.824-2.497 2.556-4.957 2.585-5.083-.06-.02-4.922-1.811-4.97-7.23zM38.041 13.4c1.27-1.534 2.14-3.62 1.898-5.737-1.838.078-4.137 1.227-5.46 2.727-1.172 1.322-2.218 3.488-1.948 5.525 2.065.149 4.185-1.006 5.51-2.516zm38.825 29.739h-3.3l-1.808-5.484h-6.283l-1.722 5.484H60.54l6.225-18.67h3.845l6.256 18.67zm-5.653-7.785l-1.635-4.875c-.173-.498-.497-1.671-.975-3.517h-.058c-.19.794-.497 1.966-.918 3.517l-1.606 4.875h5.192zm21.663.889c0 2.29-.641 4.1-1.923 5.428-1.148 1.182-2.574 1.773-4.275 1.773-1.837 0-3.156-.637-3.96-1.91h-.058v7.091h-3.098V34.109c0-1.44-.04-2.917-.115-4.432h2.724l.173 2.134h.059c1.033-1.608 2.6-2.41 4.705-2.41 1.645 0 3.018.627 4.117 1.882 1.101 1.257 1.65 2.91 1.65 4.96zm-3.157.11c0-1.311-.305-2.392-.918-3.242-.67-.886-1.57-1.33-2.697-1.33a3.29 3.29 0 00-2.08.734 3.387 3.387 0 00-1.219 1.926c-.096.37-.144.674-.144.912v2.245c0 .98.311 1.806.933 2.48.622.675 1.43 1.012 2.424 1.012 1.167 0 2.075-.435 2.725-1.302.65-.868.976-2.013.976-3.436zm19.196-.11c0 2.29-.641 4.1-1.924 5.428-1.147 1.182-2.572 1.773-4.274 1.773-1.837 0-3.156-.637-3.959-1.91H98.7v7.091h-3.098V34.109a89 89 0 00-.115-4.432h2.725l.173 2.134h.058c1.032-1.608 2.6-2.41 4.705-2.41 1.644 0 3.017.627 4.119 1.882 1.097 1.257 1.648 2.91 1.648 4.96zm-3.157.11c0-1.311-.306-2.392-.919-3.242-.67-.886-1.567-1.33-2.696-1.33-.766 0-1.459.247-2.081.734a3.385 3.385 0 00-1.218 1.926c-.094.37-.144.674-.144.912v2.245c0 .98.311 1.806.93 2.48.622.674 1.43 1.012 2.427 1.012 1.167 0 2.075-.435 2.725-1.302.651-.868.976-2.013.976-3.436zm21.089 1.551c0 1.588-.571 2.88-1.718 3.877-1.26 1.09-3.014 1.635-5.268 1.635-2.081 0-3.749-.388-5.012-1.163l.718-2.493c1.36.794 2.853 1.192 4.479 1.192 1.167 0 2.075-.255 2.728-.763.649-.508.973-1.19.973-2.04 0-.758-.267-1.396-.803-1.914-.534-.517-1.425-.998-2.668-1.443-3.386-1.22-5.078-3.005-5.078-5.354 0-1.535.593-2.793 1.78-3.772 1.183-.981 2.761-1.47 4.735-1.47 1.76 0 3.221.295 4.388.886l-.774 2.438c-1.09-.572-2.322-.858-3.701-.858-1.09 0-1.942.26-2.552.776-.516.461-.775 1.024-.775 1.69 0 .738.295 1.348.888 1.828.516.443 1.453.923 2.813 1.44 1.664.648 2.887 1.404 3.673 2.27.783.865 1.174 1.947 1.174 3.238zm10.244-5.983h-3.415v6.537c0 1.662.601 2.492 1.807 2.492.554 0 1.013-.046 1.376-.138l.086 2.271c-.61.22-1.414.331-2.409.331-1.224 0-2.18-.36-2.87-1.08-.688-.721-1.033-1.93-1.033-3.63v-6.786h-2.035v-2.244h2.035v-2.465l3.043-.887v3.352h3.415v2.247zm15.407 4.376c0 2.07-.613 3.768-1.837 5.097-1.283 1.368-2.986 2.05-5.109 2.05-2.046 0-3.675-.656-4.89-1.966-1.215-1.31-1.822-2.964-1.822-4.958 0-2.086.625-3.795 1.879-5.124 1.251-1.33 2.94-1.995 5.063-1.995 2.046 0 3.692.656 4.935 1.967 1.188 1.273 1.781 2.916 1.781 4.929zm-3.214.097c0-1.242-.275-2.307-.831-3.195-.65-1.074-1.579-1.61-2.782-1.61-1.245 0-2.191.537-2.841 1.61-.556.89-.831 1.971-.831 3.25 0 1.242.275 2.307.831 3.194.67 1.075 1.606 1.61 2.814 1.61 1.183 0 2.111-.547 2.781-1.638.571-.905.859-1.981.859-3.221zm13.285-4.087a5.573 5.573 0 00-.976-.082c-1.09 0-1.933.397-2.526 1.192-.516.702-.775 1.588-.775 2.659v7.063h-3.096l.029-9.222c0-1.552-.04-2.965-.117-4.239h2.699l.113 2.576h.086c.327-.885.843-1.598 1.549-2.132a3.83 3.83 0 012.24-.721c.286 0 .544.02.774.054v2.852zm13.856 3.464c0 .536-.036.988-.113 1.357h-9.295c.036 1.33.485 2.347 1.349 3.048.783.627 1.796.942 3.04.942 1.376 0 2.631-.212 3.761-.637l.485 2.076c-1.32.556-2.877.832-4.675.832-2.162 0-3.86-.614-5.095-1.842-1.232-1.228-1.85-2.876-1.85-4.944 0-2.03.574-3.72 1.724-5.069 1.203-1.44 2.829-2.159 4.875-2.159 2.01 0 3.531.72 4.565 2.16.818 1.143 1.229 2.557 1.229 4.236zm-2.954-.776c.02-.886-.182-1.652-.602-2.3-.536-.831-1.36-1.247-2.469-1.247-1.013 0-1.837.406-2.466 1.22-.516.647-.822 1.422-.917 2.326h6.454v.001zM70.189 12.982c0 1.652-.513 2.895-1.538 3.73-.949.77-2.297 1.156-4.044 1.156-.866 0-1.607-.037-2.228-.11V8.736a17.06 17.06 0 012.623-.191c1.664 0 2.918.35 3.764 1.048.948.79 1.423 1.92 1.423 3.39zm-1.606.041c0-1.07-.293-1.89-.88-2.463-.588-.571-1.445-.858-2.574-.858-.48 0-.888.031-1.227.096v6.859c.188.028.53.04 1.03.04 1.165 0 2.064-.312 2.698-.938.633-.626.953-1.538.953-2.736zm10.12 1.402c0 1.017-.3 1.85-.902 2.504-.631.672-1.467 1.007-2.51 1.007-1.006 0-1.806-.321-2.404-.966-.595-.644-.893-1.457-.893-2.436 0-1.024.306-1.865.922-2.517.617-.652 1.445-.98 2.488-.98 1.006 0 1.814.322 2.426.966.58.626.873 1.434.873 2.421zm-1.58.047c0-.61-.136-1.133-.408-1.57-.32-.527-.775-.79-1.366-.79-.612 0-1.077.263-1.397.79-.273.437-.408.968-.408 1.597 0 .61.137 1.133.409 1.57.33.527.789.791 1.382.791.58 0 1.037-.268 1.366-.805.281-.445.422-.973.422-1.583zm12.997-3.299l-2.144 6.613H86.58l-.888-2.871a20.89 20.89 0 01-.55-2.137h-.028a15.206 15.206 0 01-.551 2.137l-.943 2.871h-1.41l-2.016-6.613h1.565l.775 3.144c.187.743.341 1.452.465 2.123h.027c.114-.553.301-1.257.566-2.109l.972-3.157h1.24l.932 3.09c.226.753.409 1.478.55 2.177h.042c.103-.68.258-1.406.465-2.177l.831-3.09h1.495v-.001zm7.894 6.613h-1.523v-3.788c0-1.167-.459-1.75-1.38-1.75-.452 0-.817.159-1.1.48-.28.322-.423.7-.423 1.134v3.923h-1.523v-4.723c0-.58-.019-1.21-.055-1.892h1.338l.071 1.034h.043c.177-.322.441-.587.789-.799a2.643 2.643 0 011.38-.371c.64 0 1.171.199 1.594.599.526.49.79 1.22.79 2.191v3.962zm4.2 0h-1.521V8.138h1.521v9.648zm8.967-3.361c0 1.017-.301 1.85-.903 2.504-.631.672-1.468 1.007-2.51 1.007-1.007 0-1.807-.321-2.403-.966-.596-.644-.894-1.457-.894-2.436 0-1.024.307-1.865.923-2.517.616-.652 1.444-.98 2.486-.98 1.007 0 1.814.322 2.427.966.581.626.874 1.434.874 2.421zm-1.582.047c0-.61-.136-1.133-.408-1.57-.318-.527-.774-.79-1.364-.79-.614 0-1.079.263-1.397.79-.273.437-.408.968-.408 1.597 0 .61.136 1.133.408 1.57.33.527.789.791 1.382.791.581 0 1.036-.268 1.365-.805.283-.445.422-.973.422-1.583zm8.952 3.314h-1.368l-.113-.762h-.042c-.468.608-1.135.912-2.001.912-.647 0-1.17-.2-1.564-.599-.357-.362-.536-.812-.536-1.347 0-.808.349-1.424 1.051-1.85.7-.427 1.685-.636 2.954-.626v-.123c0-.872-.474-1.307-1.423-1.307-.675 0-1.271.165-1.786.49l-.309-.965c.636-.38 1.422-.571 2.35-.571 1.79 0 2.688.912 2.688 2.736v2.435c0 .66.033 1.187.099 1.577zm-1.581-2.273v-1.02c-1.68-.028-2.52.417-2.52 1.333 0 .345.096.603.292.776.196.172.446.258.744.258.334 0 .647-.102.932-.306a1.249 1.249 0 00.552-1.04zm10.235 2.273h-1.352l-.071-1.062h-.042c-.432.808-1.167 1.212-2.2 1.212-.826 0-1.513-.313-2.058-.938-.545-.626-.817-1.438-.817-2.436 0-1.07.295-1.937.888-2.6.574-.617 1.278-.925 2.115-.925.919 0 1.563.298 1.929.897h.029V8.139h1.525v7.867c0 .643.017 1.237.054 1.781zm-1.579-2.789v-1.102c0-.191-.014-.346-.042-.463a1.662 1.662 0 00-.55-.891 1.53 1.53 0 00-1.019-.36c-.568 0-1.013.217-1.34.653-.324.436-.488.993-.488 1.674 0 .653.155 1.184.468 1.592.33.435.774.652 1.331.652.5 0 .899-.18 1.203-.544.294-.335.437-.74.437-1.21zm14.603-.572c0 1.017-.3 1.85-.902 2.504-.631.672-1.465 1.007-2.51 1.007-1.004 0-1.805-.321-2.403-.966-.596-.644-.894-1.457-.894-2.436 0-1.024.307-1.865.923-2.517.616-.652 1.444-.98 2.489-.98 1.004 0 1.814.322 2.424.966.581.626.873 1.434.873 2.421zm-1.578.047c0-.61-.136-1.133-.408-1.57-.321-.527-.775-.79-1.368-.79-.61 0-1.075.263-1.396.79-.273.437-.408.968-.408 1.597 0 .61.136 1.133.408 1.57.33.527.789.791 1.382.791.581 0 1.039-.268 1.367-.805.281-.445.423-.973.423-1.583zm9.767 3.314h-1.521v-3.788c0-1.167-.46-1.75-1.382-1.75-.452 0-.817.159-1.099.48-.282.322-.423.7-.423 1.134v3.923h-1.524v-4.723c0-.58-.018-1.21-.054-1.892h1.337l.071 1.034h.042c.179-.322.444-.587.789-.799a2.651 2.651 0 011.382-.371c.638 0 1.17.199 1.593.599.528.49.789 1.22.789 2.191v3.962zm10.249-5.512h-1.677v3.213c0 .816.298 1.225.888 1.225.274 0 .5-.023.679-.07l.039 1.116c-.301.11-.696.164-1.183.164-.601 0-1.069-.176-1.408-.53-.34-.354-.508-.948-.508-1.783v-3.335h-1.002v-1.101h1.002V9.96l1.492-.435v1.645h1.677v1.103h.001zm8.063 5.512h-1.525v-3.76c0-1.185-.459-1.779-1.379-1.779-.706 0-1.189.344-1.453 1.032a1.79 1.79 0 00-.071.528v3.978h-1.522V8.138h1.522v3.986h.029c.479-.725 1.167-1.087 2.058-1.087.63 0 1.152.199 1.566.599.516.498.775 1.239.775 2.218v3.932zm8.316-3.62c0 .264-.02.486-.056.667h-4.568c.021.653.239 1.152.662 1.497.386.308.885.463 1.495.463.676 0 1.292-.104 1.847-.313l.238 1.021c-.649.272-1.414.408-2.299.408-1.061 0-1.896-.301-2.501-.904-.607-.604-.908-1.413-.908-2.429 0-.998.281-1.828.846-2.49.59-.707 1.388-1.06 2.395-1.06.985 0 1.733.353 2.239 1.06.408.56.61 1.255.61 2.08zm-1.453-.38c.012-.436-.088-.812-.295-1.13-.264-.408-.667-.612-1.212-.612-.497 0-.902.199-1.212.599a2.185 2.185 0 00-.452 1.143h3.171z"/></svg><svg viewBox="0 0 20 20" id="close_black" xmlns="http://www.w3.org/2000/svg"><path d="M10 10l3.535 3.536m-7.07 0L10 10l-3.536 3.536zm7.07-7.072L10 10l3.535-3.536zM10 10L6.464 6.464 10 10z"/></svg><svg viewBox="0 0 184 45" id="clover" xmlns="http://www.w3.org/2000/svg"><path d="M75.9 30.527c-2.927 3.555-7.11 5.855-11.71 5.855-7.945 0-14.217-5.646-14.217-12.964 0-3.554 1.463-6.9 4.181-9.409 2.51-2.51 6.064-3.764 9.619-3.555 4.6 0 8.99 2.091 11.709 5.855l-5.228 3.764c-1.463-2.3-3.763-3.764-6.481-3.764-3.973 0-7.319 3.345-7.319 7.318.21 4.182 3.555 7.318 7.528 7.318 2.718 0 5.227-1.254 6.69-3.554l5.228 3.136zM85.31 0h-6.483v35.755h6.482V0zm17.354 30.736c4.182 0 7.736-3.345 7.945-7.527-.209-4.182-3.763-7.527-7.945-7.527s-7.737 3.345-7.946 7.527c.21 4.182 3.555 7.527 7.946 7.527zm0-20.49c3.554-.21 7.109 1.045 9.827 3.554 2.718 2.51 4.182 5.855 4.391 9.41-.209 3.554-1.673 7.108-4.391 9.408-2.718 2.51-6.273 3.764-9.827 3.555-7.946 0-14.218-5.646-14.218-12.964 0-7.318 6.272-12.963 14.218-12.963zm12.963.418h7.737l6.272 13.382 6.691-13.382h7.109l-13.8 26.554-14.009-26.554zm46.418 8.991c-1.045-2.51-3.345-3.973-6.063-3.973-2.718 0-5.227 1.463-6.482 3.973h12.545zm4.182 13.172c-2.718 2.3-6.063 3.346-9.618 3.346-7.945 0-14.218-5.646-14.218-12.964 0-3.554 1.464-6.9 3.973-9.409 2.509-2.509 6.063-3.764 9.618-3.555 3.554-.209 6.9 1.255 9.409 3.764 2.509 2.51 3.764 5.855 3.554 9.41v1.672h-20.072c1.045 3.345 4.182 5.645 7.736 5.645 2.091 0 4.182-.836 5.855-2.509l3.763 4.6zm5.855-11.081c0-6.064 4.6-10.873 11.918-10.873v5.854c-1.464 0-3.136.628-4.182 1.673-1.045 1.046-1.463 2.718-1.254 4.182v13.173h-6.482v-14.01zM20.282 11.71c0-4.183-2.51-7.737-6.273-9.41C10.245.627 5.855 1.464 2.927 4.391 0 7.318-.836 11.709.627 15.473c1.464 3.763 5.228 6.272 9.41 6.272h10.245V11.71zm2.927 0c0-4.183 2.51-7.737 6.273-9.41 3.764-1.673 8.154-.836 11.082 2.091 2.927 2.927 3.763 7.318 2.3 11.082-1.464 3.763-5.228 6.272-9.41 6.272H23.21V11.71zm0 23c0 4.181 2.51 7.736 6.273 9.408 3.764 1.673 8.154.837 11.082-2.09 2.927-2.928 3.763-7.319 2.3-11.082-1.464-3.764-5.228-6.273-9.41-6.273H23.21v10.036zm-13.173 7.317c3.973 0 7.319-3.136 7.319-7.318v-7.318h-7.319c-3.972 0-7.318 3.136-7.318 7.318 0 4.182 3.346 7.318 7.318 7.318zm10.246-7.318c0 4.182-2.51 7.736-6.273 9.41-3.764 1.672-8.154.836-11.082-2.092C0 39.1-.836 34.71.627 30.945c1.464-3.763 5.228-6.272 9.41-6.272h10.245v10.036z"/></svg><svg viewBox="0 0 90 90" id="facebook" xmlns="http://www.w3.org/2000/svg"><path d="M90 45C90 20.147 69.853 0 45 0S0 20.147 0 45c0 22.46 16.456 41.077 37.969 44.453V58.008H26.543V45h11.426v-9.914c0-11.278 6.718-17.508 16.997-17.508 4.922 0 10.073.879 10.073.879v11.074h-5.674c-5.59 0-7.334 3.47-7.334 7.032V45h12.48l-1.994 13.008H52.03v31.445C73.544 86.077 90 67.46 90 45z"/><path d="M62.517 58.008L64.512 45h-12.48v-8.438c0-3.558 1.743-7.03 7.333-7.03h5.674V18.456s-5.15-.879-10.073-.879c-10.279 0-16.997 6.23-16.997 17.508V45H26.543v13.008h11.426v31.445a45.49 45.49 0 0014.062 0V58.008h10.486z"/></svg><svg viewBox="0 0 196 57" id="googlePlay" xmlns="http://www.w3.org/2000/svg"><path d="M188.741 57H7.259C3.27 57 0 53.792 0 49.875V7.125C0 3.208 3.268 0 7.26 0h181.48c3.992 0 7.26 3.208 7.26 7.125v42.75c0 3.917-3.268 7.125-7.259 7.125z"/><path d="M68.843 14.598c0 1.19-.363 2.143-1.078 2.853-.822.843-1.892 1.267-3.205 1.267-1.254 0-2.324-.431-3.203-1.281-.88-.862-1.32-1.92-1.32-3.187 0-1.266.44-2.324 1.32-3.18.879-.856 1.95-1.287 3.203-1.287.625 0 1.22.126 1.788.362.566.237 1.027.557 1.361.953l-.758.751c-.583-.675-1.376-1.008-2.39-1.008a3.36 3.36 0 00-2.382.946c-.666.634-1 1.455-1 2.463s.334 1.837 1 2.47c.674.626 1.467.947 2.381.947.971 0 1.788-.32 2.432-.953.425-.419.666-.996.73-1.733H64.56v-1.03h4.218c.05.223.065.438.065.647zm6.691-3.57h-3.961v2.707h3.571v1.03h-3.571v2.707h3.962v1.05H70.45V9.979h5.084v1.049zm4.723 7.494h-1.122v-7.494h-2.43v-1.05h5.984v1.05h-2.432v7.494zm6.762 0V9.979h1.12v8.543h-1.12zm6.083 0h-1.113v-7.494H89.55v-1.05h5.991v1.05h-2.44v7.494zm13.767-1.099c-.858.864-1.922 1.295-3.19 1.295-1.276 0-2.34-.431-3.198-1.295-.856-.862-1.283-1.92-1.283-3.173 0-1.252.427-2.31 1.283-3.172.858-.864 1.922-1.295 3.198-1.295 1.261 0 2.325.431 3.183 1.302.864.87 1.29 1.92 1.29 3.165 0 1.253-.426 2.31-1.283 3.173zm-5.559-.716c.647.64 1.432.96 2.369.96.929 0 1.722-.32 2.361-.96.644-.64.971-1.46.971-2.457 0-.995-.327-1.816-.971-2.456-.639-.64-1.432-.96-2.361-.96-.937 0-1.722.32-2.369.96-.644.64-.97 1.46-.97 2.456s.326 1.817.97 2.457zm8.416 1.815V9.979h1.361l4.232 6.644h.049l-.049-1.643v-5h1.12v8.543h-1.169l-4.432-6.972h-.049l.049 1.65v5.322h-1.112zM98.922 30.997c-3.41 0-6.196 2.547-6.196 6.062 0 3.486 2.786 6.06 6.196 6.06 3.417 0 6.203-2.574 6.203-6.06 0-3.515-2.786-6.062-6.203-6.062zm0 9.735c-1.871 0-3.48-1.516-3.48-3.673 0-2.186 1.609-3.675 3.48-3.675s3.488 1.49 3.488 3.675c0 2.157-1.617 3.673-3.488 3.673zm-13.519-9.735c-3.417 0-6.195 2.547-6.195 6.062 0 3.486 2.778 6.06 6.195 6.06 3.416 0 6.196-2.574 6.196-6.06 0-3.515-2.78-6.062-6.196-6.062zm0 9.735c-1.873 0-3.488-1.516-3.488-3.673 0-2.186 1.615-3.675 3.488-3.675 1.871 0 3.481 1.49 3.481 3.675 0 2.157-1.61 3.673-3.48 3.673zm-16.086-7.877v2.576h6.266c-.183 1.439-.673 2.497-1.424 3.235-.915.89-2.34 1.879-4.842 1.879-3.857 0-6.876-3.055-6.876-6.84 0-3.785 3.02-6.84 6.876-6.84 2.085 0 3.602.8 4.722 1.836l1.85-1.815c-1.567-1.468-3.65-2.595-6.572-2.595-5.288 0-9.733 4.223-9.733 9.414 0 5.19 4.444 9.414 9.733 9.414 2.858 0 5.005-.92 6.693-2.644 1.73-1.697 2.268-4.084 2.268-6.011 0-.599-.05-1.15-.141-1.609h-8.82zm65.78 1.997c-.51-1.356-2.084-3.855-5.289-3.855-3.176 0-5.82 2.456-5.82 6.062 0 3.395 2.617 6.06 6.125 6.06 2.837 0 4.474-1.698 5.147-2.687l-2.105-1.376c-.703 1.008-1.659 1.676-3.042 1.676-1.374 0-2.359-.618-2.991-1.837l8.26-3.354-.285-.69zm-8.421 2.018c-.071-2.337 1.849-3.534 3.225-3.534 1.078 0 1.992.529 2.297 1.286l-5.522 2.248zm-6.713 5.88h2.715V24.937h-2.715V42.75zm-4.446-10.403h-.091c-.61-.709-1.773-1.35-3.247-1.35-3.092 0-5.92 2.665-5.92 6.081 0 3.397 2.828 6.04 5.92 6.04 1.474 0 2.637-.646 3.247-1.376h.091v.869c0 2.317-1.262 3.562-3.296 3.562-1.659 0-2.688-1.175-3.113-2.164l-2.361.967c.681 1.607 2.483 3.584 5.474 3.584 3.183 0 5.869-1.838 5.869-6.31V31.365h-2.573v.981zm-3.106 8.385c-1.871 0-3.437-1.538-3.437-3.654 0-2.135 1.566-3.694 3.437-3.694 1.844 0 3.298 1.559 3.298 3.694 0 2.116-1.454 3.654-3.298 3.654zm35.397-15.795h-6.494V42.75h2.708V36h3.786c3.007 0 5.956-2.135 5.956-5.532 0-3.395-2.957-5.53-5.956-5.53zm.07 8.586h-3.856v-6.108h3.856a3.12 3.12 0 013.176 3.053 3.137 3.137 0 01-3.176 3.055zm16.738-2.56c-1.956 0-3.99.848-4.827 2.727l2.403.989c.517-.989 1.468-1.31 2.473-1.31 1.405 0 2.83.83 2.851 2.291v.188c-.49-.278-1.539-.69-2.829-.69-2.588 0-5.225 1.398-5.225 4.008 0 2.387 2.12 3.924 4.503 3.924 1.822 0 2.827-.807 3.459-1.746h.092v1.377h2.616V35.89c0-3.159-2.403-4.926-5.516-4.926zm-.326 9.762c-.886 0-2.12-.431-2.12-1.51 0-1.378 1.539-1.907 2.871-1.907 1.192 0 1.751.258 2.475.599-.212 1.65-1.658 2.818-3.226 2.818zm15.369-9.372l-3.112 7.722h-.093l-3.217-7.722h-2.92l4.834 10.791-2.758 6.005h2.829l7.45-16.796h-3.013zM155.252 42.75h2.715V24.937h-2.715V42.75zM15.15 10.743c-.427.438-.673 1.12-.673 2.004V44.26c0 .883.246 1.566.673 2.004l.105.096 17.992-17.652v-.417L15.255 10.64l-.105.103zM39.238 34.595l-5.99-5.887v-.417l5.997-5.887.135.077 7.103 3.967c2.027 1.125 2.027 2.978 0 4.11l-7.103 3.96-.142.077z"/><path d="M39.38 34.52l-6.133-6.02L15.15 46.265c.673.694 1.771.778 3.02.084l21.21-11.83zM39.38 22.481l-21.21-11.83c-1.249-.687-2.347-.603-3.02.092L33.248 28.5l6.132-6.019z"/><defs><linearGradient id="la" x1="31.65" y1="44.589" x2="7.739" y2="20.228" gradientUnits="userSpaceOnUse"><stop stop-color="#00A0FF"/><stop offset=".007" stop-color="#00A1FF"/><stop offset=".26" stop-color="#00BEFF"/><stop offset=".512" stop-color="#00D2FF"/><stop offset=".76" stop-color="#00DFFF"/><stop offset="1" stop-color="#00E3FF"/></linearGradient><linearGradient id="lb" x1="49.122" y1="28.498" x2="13.992" y2="28.498" gradientUnits="userSpaceOnUse"><stop stop-color="#FFE000"/><stop offset=".409" stop-color="#FFBD00"/><stop offset=".775" stop-color="orange"/><stop offset="1" stop-color="#FF9C00"/></linearGradient><linearGradient id="lc" x1="36.045" y1="25.229" x2="3.62" y2="-7.807" gradientUnits="userSpaceOnUse"><stop stop-color="#FF3A44"/><stop offset="1" stop-color="#C31162"/></linearGradient><linearGradient id="ld" x1="10.595" y1="56.749" x2="25.074" y2="41.997" gradientUnits="userSpaceOnUse"><stop stop-color="#32A071"/><stop offset=".069" stop-color="#2DA771"/><stop offset=".476" stop-color="#15CF74"/><stop offset=".801" stop-color="#06E775"/><stop offset="1" stop-color="#00F076"/></linearGradient></defs></svg><svg viewBox="0 0 586 498" id="hero_bg" xmlns="http://www.w3.org/2000/svg"><path d="M795.584 419.496l-544.942-1.467c-91.979-.247-166.342-75.012-166.094-166.991.247-91.839 74.793-166.144 166.632-166.094l202.414.11"/></svg><svg viewBox="0 0 46 46" id="instagram" xmlns="http://www.w3.org/2000/svg"><path d="M23.27 4.711c6.048 0 6.765.027 9.143.133 2.21.097 3.404.469 4.2.778 1.052.407 1.813.902 2.6 1.689.795.796 1.282 1.547 1.688 2.6.31.795.681 1.998.778 4.2.106 2.387.133 3.103.133 9.142 0 6.048-.026 6.764-.133 9.142-.097 2.21-.468 3.405-.778 4.2-.406 1.053-.902 1.813-1.689 2.6-.795.796-1.547 1.282-2.599 1.689-.796.31-1.998.68-4.2.778-2.387.106-3.103.132-9.142.132-6.048 0-6.765-.026-9.143-.132-2.21-.097-3.404-.469-4.2-.778-1.052-.407-1.812-.902-2.6-1.69-.795-.795-1.282-1.546-1.688-2.599-.31-.795-.681-1.998-.778-4.2-.106-2.387-.133-3.103-.133-9.142 0-6.048.027-6.764.133-9.143.097-2.21.468-3.404.778-4.2.407-1.052.902-1.812 1.689-2.599.795-.796 1.547-1.282 2.6-1.689.795-.31 1.997-.68 4.199-.778 2.378-.106 3.095-.133 9.142-.133zm0-4.076c-6.145 0-6.914.027-9.328.133-2.405.106-4.058.495-5.49 1.052-1.495.584-2.76 1.353-4.015 2.617-1.264 1.256-2.033 2.52-2.617 4.006-.557 1.441-.946 3.086-1.052 5.49-.106 2.423-.133 3.192-.133 9.338 0 6.145.027 6.914.133 9.328.106 2.405.495 4.058 1.052 5.49.584 1.495 1.353 2.76 2.617 4.015a11.065 11.065 0 004.006 2.608c1.44.557 3.085.946 5.49 1.052 2.414.106 3.184.133 9.329.133 6.145 0 6.914-.026 9.328-.133 2.405-.106 4.058-.495 5.49-1.052a11.064 11.064 0 004.006-2.608 11.064 11.064 0 002.608-4.005c.557-1.442.947-3.086 1.053-5.491.106-2.414.132-3.183.132-9.328 0-6.146-.026-6.915-.132-9.329-.106-2.405-.495-4.058-1.053-5.49-.556-1.504-1.326-2.768-2.59-4.024a11.064 11.064 0 00-4.006-2.608c-1.44-.557-3.085-.946-5.49-1.052C30.185.662 29.416.635 23.27.635z"/><path d="M23.27 11.643c-6.419 0-11.626 5.208-11.626 11.628 0 6.419 5.207 11.627 11.627 11.627 6.419 0 11.627-5.208 11.627-11.627 0-6.42-5.208-11.628-11.627-11.628zm0 19.17a7.543 7.543 0 010-15.084 7.543 7.543 0 010 15.084zm14.802-19.629a2.715 2.715 0 11-2.715-2.715 2.72 2.72 0 012.715 2.715z"/></svg><svg viewBox="0 0 24 24" id="loading" xmlns="http://www.w3.org/2000/svg"><circle opacity=".5" cx="12" cy="12" r="9"/><path d="M12 21a9 9 0 01-9-9"/></svg><svg viewBox="0 0 27 30" id="logo" xmlns="http://www.w3.org/2000/svg"><path opacity=".7" d="M13.504 14.809l-2.596.035a5.595 5.595 0 01-5.67-5.519 5.595 5.595 0 015.519-5.67l12.834-.173M22.457 26.128l-12.841-.034a5.589 5.589 0 01-5.574-5.604 5.589 5.589 0 015.588-5.574h3.975"/><path opacity=".7" d="M22.539 26.021l-8.198-9.969a2.303 2.303 0 01.11-3.051l9.081-9.54"/></svg><svg viewBox="0 0 22 16" id="ru" xmlns="http://www.w3.org/2000/svg"><g clip-path="url(#qa)"><g clip-path="url(#qb)"><rect width="22" height="16" rx="2"/><path fill-rule="evenodd" clip-rule="evenodd" d="M0 10.667h22V16H0v-5.333zM0 0h22v5.333H0V0z"/></g></g><defs><clipPath id="qa"><path d="M0 0h22v16H0z"/></clipPath><clipPath id="qb"><rect width="22" height="16" rx="2"/></clipPath></defs></svg><svg viewBox="0 0 209 60" id="shopify" xmlns="http://www.w3.org/2000/svg"><path d="M184.24 60c-.603-1.839-1.178-3.688-1.825-5.51-.201-.573.111-.645.479-.787 2.803-1.077 5.12-2.763 6.79-5.314a3.155 3.155 0 00.508-2.48c-1.337-7.129-2.642-14.267-3.965-21.396-.237-1.284-.251-1.28 1.009-1.28 1.838 0 3.68.019 5.513-.013.566 0 .732.177.785.744.508 5.294 1.051 10.585 1.577 15.876.017.166-.021.354.175.47.217-.136.23-.386.298-.591 1.786-5.28 3.811-10.47 5.783-15.68.235-.62.539-.839 1.202-.825 2.12.045 4.244.018 6.431.018-.034.172-.08.342-.139.507-3.527 7.41-6.723 14.981-10.514 22.26-1.752 3.366-3.785 6.554-6.411 9.314-2.014 2.115-4.381 3.675-7.185 4.524-.068.021-.117.108-.175.163h-.336zM35.965 58.946V6.87c.407-.046.635.241.877.485.939.923 1.897 1.828 2.803 2.781a1.864 1.864 0 001.53.652c.93-.04 1.866.052 2.804.018.855-.032 1.25.3 1.372 1.176.517 3.748 1.084 7.49 1.633 11.233l2.543 17.327c.665 4.527 1.322 9.054 2.011 13.578.11.728-.02 1.079-.815 1.27-4.642 1.114-9.268 2.294-13.9 3.443-.284.054-.57.09-.858.112zm57.088-10.424c.732-3.918 1.458-7.753 2.16-11.593.35-1.932.842-3.847.808-5.845-.038-2.382-1.74-3.365-3.802-2.162-1.15.67-1.896 1.716-2.529 2.858-1.116 2.016-1.475 4.251-1.896 6.476-.6 3.174-1.204 6.346-1.778 9.524-.102.563-.305.767-.9.755a125.838 125.838 0 00-5.607 0c-.608.012-.74-.177-.63-.753 1.843-9.662 3.676-19.326 5.5-28.992.382-2.02.774-4.037 1.126-6.061.095-.54.304-.725.856-.709 1.869.033 3.738.033 5.607 0 .645-.01.773.161.645.81-.866 4.378-1.686 8.764-2.52 13.15a1.593 1.593 0 000 .276c.333.021.42-.273.58-.44 1.752-1.83 3.817-2.941 6.361-3.149 3.571-.292 6.103 1.872 6.349 5.482.159 2.344-.265 4.625-.701 6.908-.817 4.267-1.614 8.54-2.42 12.81-.056.3 0 .666-.5.662-2.22-.017-4.433-.007-6.71-.007zm74.922 0c.603-3.248 1.188-6.417 1.782-9.586.603-3.2 1.199-6.405 1.835-9.598.131-.664-.065-.826-.68-.783-.615.042-1.284-.009-1.928.016-.45.016-.55-.177-.466-.583.289-1.438.575-2.878.831-4.322.074-.41.266-.531.648-.531.701.018 1.402-.023 2.103.012.517.027.701-.168.778-.682.229-1.57.664-3.103 1.293-4.557 1.881-4.303 5.692-6.648 10.411-6.377.903.027 1.801.16 2.674.397.417.124.589.292.473.74a239.553 239.553 0 00-1.127 4.526c-.1.418-.289.47-.68.4-3.278-.582-5.071.627-5.838 3.915-.381 1.63-.381 1.63 1.244 1.63.902 0 1.806.019 2.711 0 .476-.015.623.155.525.621-.271 1.417-.541 2.825-.779 4.251-.072.432-.249.578-.684.569-1.195-.029-2.392.02-3.587-.023-.541-.02-.764.164-.862.696a5202.152 5202.152 0 01-3.347 17.916 8.166 8.166 0 00-.159.864c-.032.369-.197.502-.561.5-2.177-.01-4.36-.01-6.61-.01zm-100.98.446c-2.744.013-4.866-.416-6.888-1.346-.526-.244-.736-.5-.49-1.12.474-1.2.875-2.426 1.268-3.657.175-.545.35-.67.9-.402a12.838 12.838 0 004.529 1.24c.666.07 1.34.004 1.981-.193 1.753-.574 2.278-2.46 1.103-3.897-.491-.597-1.129-1.011-1.769-1.417-.64-.405-1.337-.837-1.978-1.294-5.344-3.794-3.319-10.017.56-12.4 2.84-1.744 5.927-1.962 9.113-1.632a10.39 10.39 0 012.88.69c.474.194.684.399.472.976-.468 1.263-.864 2.555-1.253 3.846-.142.473-.336.572-.792.39a9.82 9.82 0 00-4.447-.72 3.584 3.584 0 00-1.577.475c-1.227.72-1.458 2.143-.538 3.234.48.569 1.1.955 1.735 1.322a23.275 23.275 0 012.691 1.801c4.656 3.633 2.891 9.675-.492 12.004-1.928 1.328-4.388 2.056-7.008 2.1zm91.233-.446c-.904 0-1.813-.065-2.71.018-.898.083-.754-.395-.649-.946.64-3.344 1.275-6.69 1.903-10.036.861-4.527 1.732-9.053 2.569-13.585.097-.52.237-.762.813-.753 1.924.032 3.849.032 5.774 0 .573-.009.687.177.582.723a7394.344 7394.344 0 00-4.542 23.788c-.109.577-.284.857-.941.807-.927-.069-1.865-.016-2.799-.016zm9.926-32.607c.012 2.453-1.725 4.198-4.181 4.198-2.044 0-3.381-1.392-3.388-3.528 0-2.35 1.753-4.172 4.031-4.19 2.062-.006 3.527 1.44 3.538 3.52z"/><path fill-rule="evenodd" clip-rule="evenodd" d="M140.029 26.42c-.129.148-.268.308-.424.482.047-.437.089-.847.13-1.238.069-.673.133-1.293.206-1.907.062-.479-.056-.688-.581-.679-1.664.031-3.326.031-4.987 0-.54-.009-.682.206-.74.709-.523 4.598-1.393 9.139-2.263 13.679l-.455 2.386-.325 1.725a3106.855 3106.855 0 01-3.078 16.186c-.152.786.076.928.801.907 1.7-.05 3.396-.082 5.082.01.921.05 1.163-.329 1.302-1.139.314-1.85.656-3.695.998-5.54.199-1.07.398-2.142.591-3.213l.018-.106c.055-.34.098-.602.667-.388 4.046 1.521 7.868.843 11.077-1.906 5.527-4.736 7.275-10.966 6.017-18.033-.494-2.776-2.148-4.852-5.05-5.491-3.291-.723-6.012.45-8.308 2.807-.222.227-.432.468-.678.75zm3.839 15.384c2.2-2.622 3.016-5.766 3.251-9.108a6.494 6.494 0 00-.396-2.423c-.442-1.172-1.344-1.741-2.572-1.704-1.229.037-2.142.696-2.918 1.57-1.237 1.388-1.961 3.055-2.334 4.854a110.464 110.464 0 00-.603 3.234 96.688 96.688 0 01-.678 3.593c-.16.761.116 1.056.701 1.343 1.982.967 3.972.526 5.549-1.36zm-32.195-16.575c-4.439 3.415-6.172 8.158-6.384 12.753-.019 6.172 2.725 9.904 7.437 10.824 3.38.659 6.555-.01 9.442-1.908 6.057-3.989 7.815-12.399 6.501-17.358-.996-3.764-3.41-6.113-7.255-6.731-3.552-.572-6.864.21-9.741 2.42zm8.316 15.022a17.846 17.846 0 001.81-7.24c.011-.942-.008-1.734-.249-2.506-.639-2.115-2.731-2.986-4.68-1.948a5.143 5.143 0 00-1.735 1.583c-1.281 1.773-1.945 3.801-2.332 5.927-.302 1.658-.484 3.326.012 4.977.771 2.58 3.468 3.33 5.469 1.534a7.62 7.62 0 001.705-2.327zM33.139 58.476h-.003v-.001h-.001c-2.019-.335-4.037-.67-6.052-1.019-3.156-.546-6.31-1.095-9.465-1.644h-.003c-5.52-.962-11.039-1.922-16.565-2.867-.837-.143-1.153-.335-1.021-1.321 1.04-7.785 2.037-15.576 3.034-23.366l.646-5.047c.071-.553.145-1.106.218-1.66.174-1.311.348-2.623.5-3.937.098-.843.526-1.316 1.318-1.555.766-.233 1.532-.473 2.3-.715.987-.31 1.976-.62 2.97-.915.597-.177.875-.483 1.02-1.126 1.027-4.38 2.859-8.325 6.309-11.336C19.676.805 21.221.073 23.021.007a4.563 4.563 0 011.848.277 4.601 4.601 0 011.588.995c.261.248.512.452.906.452 2.327 0 3.866 1.274 4.98 3.188.337.551.61 1.139.815 1.752.202.66.535.732 1.1.517l.03-.011c.555-.21 1.078-.408 1.672-.3a1.2 1.2 0 01.41.935c.02.354.025.708.025 1.063 0 16.03-.003 32.06-.01 48.089.002.125.009.252.016.38.031.563.063 1.146-.436 1.602-.94-.158-1.882-.314-2.824-.47h-.002zm-8.51-56.082c-2.576 1.643-4.02 4.116-5.043 6.892l-.074.195c-.155.404-.314.816-.352 1.234-.098 1.063-.7 1.48-1.664 1.697-.762.17-1.507.423-2.25.676-.197.067-.394.134-.59.199-.513.177-.747.069-.577-.507 1.109-3.755 2.774-7.172 5.901-9.67 1.01-.807 2.161-1.276 3.482-1.177l.02.002c.395.03.8.06 1.147.459zm.996 7.464c1.32-.413 1.32-.415 1.267-1.82a11.629 11.629 0 00-.523-3.205c-.303-.984-.43-1.035-1.235-.452-2.166 1.575-3.231 3.875-4.03 6.34-.188.564.163.493.513.387l4.008-1.25zm2.525-5.72c-.053-.484.232-.366.476-.266l.01.004c.932.383 1.557 1.1 2.062 1.948 1.193 2.002.978 2.464-1.318 2.868-.298.051-.543.074-.559-.308a16.596 16.596 0 00-.67-4.246zM10.21 46.333a11.687 11.687 0 007.258 2.427c1.749.01 2.947-.229 4.17-.831 3.396-1.68 5.222-5.82 4.448-9.98-.487-2.615-2.075-4.406-4.15-5.867a34.08 34.08 0 00-1.188-.791c-.78-.504-1.56-1.007-2.255-1.63-1.396-1.25-1.155-3.22.51-4.075a4.545 4.545 0 011.239-.414 8.895 8.895 0 014.568.409c.55.191.775.08.917-.494.434-1.77.902-3.53 1.402-5.282.19-.675-.011-.965-.665-1.123-1.703-.41-3.408-.365-5.129-.152-4.86.602-8.51 3.755-9.573 8.303-.932 3.993.148 6.922 3.431 9.33a55.516 55.516 0 012.026 1.539 3.842 3.842 0 011.304 1.84c.54 1.713-.498 3.174-2.278 3.188a5.39 5.39 0 01-1.384-.177 10.879 10.879 0 01-3.33-1.54c-.59-.394-.874-.424-1.023.385a38.368 38.368 0 01-.824 3.518c-.175.664.023 1.036.526 1.417z"/></svg><svg viewBox="0 0 277 40" id="squarespace" xmlns="http://www.w3.org/2000/svg"><g clip-path="url(#sa)"><path d="M32.5 39.986l-2.242-2.444c1.058-.98 2.177-1.953 3.23-3.013 3.43-3.45 6.856-6.902 10.241-10.411 2.044-2.113 2.291-5.011.735-7.247-2.136-3.068-6.106-3.375-8.824-.644a2903.15 2903.15 0 00-12.653 12.798l-2.745 2.794-2.482-2.707c3.423-3.367 6.928-6.797 10.413-10.246 1.745-1.726 3.434-3.51 5.187-5.228 3.69-3.622 9.251-3.66 12.818-.12 3.568 3.54 3.739 9.203.126 12.898-4.493 4.581-9.14 9-13.804 13.57zM18.187 2.603c-4.413 4.383-8.914 8.745-13.333 13.213-2.881 2.918-2.16 7.37 1.377 9.228 2.098 1.096 4.814.594 6.716-1.323 4.93-4.976 9.85-9.96 14.759-14.954.157-.162.323-.312.544-.52l2.514 2.74c-3.85 3.772-7.845 7.67-11.828 11.6-1.298 1.273-2.536 2.61-3.853 3.865-3.766 3.58-9.287 3.542-12.822-.06a9.252 9.252 0 01-2.615-6.487 9.251 9.251 0 012.664-6.467C6.735 8.926 11.257 4.512 15.88-.088l2.307 2.69zM96.11 27.729l2.935 4.008c-2.247.173-4.049.6-5.06-1.482-.37-.762-.901-.496-1.481-.274-4.435 1.597-9.252.063-11.638-3.688-3.222-5.055-1.673-12.627 3.197-15.293 3.453-1.888 6.996-1.83 10.34.216 3.442 2.11 4.542 5.516 4.493 9.379a10.605 10.605 0 01-2.787 7.134zm-1.595-3.715c.95-2.33.994-5.034.138-7.4-.906-2.493-2.835-3.778-5.4-3.885-2.45-.102-4.444.937-5.549 3.224-1.442 2.992-1.382 6.006.335 8.888 1.175 1.973 3.01 2.828 5.27 2.74 2.332-.085 4.128-1.154 5.086-3.288a7.28 7.28 0 00.12-.28zm67.9 5.86c-1.048 0-1.956.077-2.843-.033a2.011 2.011 0 01-1.17-.723c-1.508-1.88-3.045-3.743-4.398-5.732-.846-1.244-1.828-1.43-3.205-1.08v7.464h-3.328V9.97c3.401.194 6.838.14 10.185.668 2.343.367 3.616 2.466 3.728 4.792.136 2.797-.906 4.693-3.192 5.797-.441.214-.89.406-1.458.666 1.039 1.315 2.097 2.548 3.036 3.871.909 1.283 2.34 2.247 2.645 4.11zm-11.581-10.603c1.742-.129 3.323-.15 4.871-.389 1.472-.227 2.305-1.331 2.343-2.74.038-1.408-.751-2.567-2.253-2.794-1.619-.244-3.282-.186-4.961-.274v6.197zm-7.662 10.606c-.993.042-1.988.029-2.98-.039-.323-.035-.729-.454-.865-.791a48.351 48.351 0 01-1.377-3.855c-.231-.729-.62-.978-1.385-.96-2.177.05-4.353.042-6.53 0-.738 0-1.162.163-1.388.938-.343 1.178-.906 2.293-1.211 3.48-.247.972-.694 1.37-1.687 1.24-.691-.04-1.384-.04-2.076 0 .166-.77.221-1.4.433-1.97 2.076-5.586 4.196-11.158 6.258-16.75.272-.764.642-1.096 1.469-1.03a13.87 13.87 0 002.852 0c1.154-.15 1.559.41 1.905 1.389 2.03 5.6 4.122 11.178 6.179 16.77.162.518.296 1.045.403 1.578zm-6.604-8.655c-.887-2.595-1.692-4.997-2.541-7.397-.101-.274-.447-.466-.675-.696-.229.233-.544.424-.67.704a20.081 20.081 0 00-.707 1.918c-.618 1.78-1.227 3.561-1.883 5.48l6.476-.01zm102.248 8.652c-1.132 0-2.079.058-3.01-.036-.272-.027-.623-.435-.745-.745a44.695 44.695 0 01-1.331-3.72c-.242-.806-.59-1.176-1.499-1.146a112.83 112.83 0 01-6.53 0c-.757-.019-1.127.2-1.361.951-.482 1.556-1.088 3.077-1.633 4.658h-3.303c.06-.539.164-1.071.31-1.592 2.095-5.62 4.237-11.233 6.297-16.852.356-.981.816-1.37 1.845-1.26 1.295.123 2.895-.335 3.809.273.86.581 1.02 2.233 1.464 3.425 1.761 4.723 3.513 9.45 5.254 14.18.181.613.325 1.235.433 1.864zm-13.02-8.715h6.47c-.892-2.597-1.717-5.033-2.579-7.455-.082-.233-.422-.531-.623-.518a.927.927 0 00-.61.548c-.89 2.428-1.744 4.858-2.658 7.425zM59.968 24.485l3.11-.359c1.043 2.707 3.146 3.836 6.022 3.014 1.445-.414 2.158-1.417 2.177-2.792 0-1.438-.892-2.107-2.103-2.496-1.377-.444-2.776-.822-4.136-1.312-3.225-1.156-4.781-3.206-4.52-5.858.272-2.863 2.199-4.688 5.537-5.271 3.195-.548 6.155.548 7.516 2.907.392.68.56 1.487.879 2.361l-3.151.299c-1.45-2.403-3.045-3.131-5.252-2.425-1.04.335-1.711 1.006-1.834 2.13a2.063 2.063 0 001.374 2.279c1.592.646 3.23 1.172 4.841 1.77 3.35 1.24 4.482 2.679 4.414 5.578-.068 2.808-1.677 4.726-4.83 5.654a8.78 8.78 0 01-7.429-1.016c-1.608-1.008-2.342-2.57-2.614-4.463zm138.585-9.795l-3.2.274c-1.382-2.38-3.08-3.232-5.241-2.348-.748.307-1.458 1.198-1.757 1.987-.379.992.272 1.874 1.224 2.31 1.026.462 2.103.821 3.162 1.207.816.296 1.632.549 2.432.863 2.036.842 3.614 2.069 3.747 4.537.139 2.644-.906 4.59-3.221 5.842-3.581 1.917-8.708.923-10.67-2.099a4.96 4.96 0 01-.514-.959c-.198-.548-.335-1.12-.544-1.803l3.197-.38c1.309 2.819 3.668 3.923 6.185 2.978 1.282-.483 1.992-1.39 1.986-2.795 0-1.356-.843-2.044-2.013-2.425-1.361-.446-2.77-.822-4.133-1.32-3.323-1.18-4.898-3.247-4.626-5.92.324-2.916 2.329-4.858 5.714-5.236 2.857-.318 5.578.076 7.279 2.835.454.699.636 1.546.993 2.452zm-94-4.961h3.289v3.734c.041 3.241 0 6.488.169 9.718.158 2.846 1.82 4.298 4.468 4.238 2.449-.055 4.133-1.72 4.204-4.43.103-3.836.046-7.671.057-11.507V9.756h3.282c.065.09.157.165.157.236-.019 4.518.164 9.04-.125 13.548-.326 5.085-3.477 6.887-8.128 6.786-4.87-.104-7.401-2.789-7.442-7.671-.032-3.926 0-7.855 0-11.781-.005-.367.039-.72.069-1.145zM166.741 29.8V10.195h12.656v2.934h-9.227v5.153h8.536v3.014h-8.563v5.545h9.36v2.964l-12.762-.005zm110.265.038h-12.689V9.945h12.642v2.926h-9.376v5.206h8.707v3.013h-8.686v5.669h9.407l-.005 3.08zm-69.416-7.542v7.512h-3.423V10.395c3.357 0 6.704-.236 10.002.07 2.862.275 4.473 2.658 4.514 5.754.038 2.918-1.632 5.09-4.479 5.68-1.063.206-2.14.334-3.221.38-1.072.066-2.153.017-3.393.017zm.111-9.107v6.197c1.693-.076 3.279-.06 4.841-.246 1.706-.203 2.631-1.337 2.631-2.929 0-1.592-1.02-2.85-2.721-2.992-1.565-.131-3.14-.03-4.751-.03zm51.601 2.049c-.861.246-1.736.438-2.62.576a1.33 1.33 0 01-1.034-.548c-1.249-1.918-3.042-2.74-5.219-2.576-2.348.19-4.081 1.439-4.968 3.69-1.056 2.68-1.045 5.36.315 7.932 1.905 3.581 7.075 4.167 9.524 1.006.767-.995 1.404-1.35 2.544-.932a10.43 10.43 0 001.575.31c-.919 3.655-5.365 6.145-9.814 5.542-5.249-.71-8.604-4.819-8.514-10.438.089-5.62 3.706-9.66 9.221-10.099 3.937-.304 8.087 1.781 8.99 5.537z"/><path d="M37.006 4.189l-2.414 2.258c-.22-.203-.52-.46-.8-.737-2.789-2.757-5.92-2.74-8.707.074-4.657 4.726-9.3 9.465-13.929 14.216-.353.428-.67.887-.944 1.37l-2.98-2.902c3.407-3.287 6.754-6.476 10.068-9.71 1.818-1.777 3.57-3.624 5.355-5.435 4.42-4.487 10.272-4.178 14.35.866zM11.55 35.899c.817-.822 1.576-1.576 2.37-2.37.594.548 1.114 1.134 1.71 1.608 2.269 1.814 5.395 1.553 7.618-.696 4.735-4.784 9.431-9.605 14.15-14.416.348-.356.664-.745 1.12-1.26l2.49 3.013c-3.08 2.984-6.345 6.126-9.61 9.307-1.785 1.75-3.516 3.562-5.257 5.35-4.588 4.73-10.198 4.573-14.59-.536z"/></g><defs><clipPath id="sa"><path d="M0 0h277v40H0z"/></clipPath></defs></svg><svg viewBox="0 0 182 48" id="squere" xmlns="http://www.w3.org/2000/svg"><g clip-path="url(#ta)"><path d="M98.91 47.586l.049-8.572v-3.089c-.12.094-.234.196-.34.307-3.554 4.821-12.709 4.73-15.38-3.273-1.45-4.342-1.206-8.654 1.538-12.459 3.31-4.596 9.904-4.824 13.634-.602.129.154.262.291.526.586V17.45h2.925v30.135l-2.952.001zm.044-19.391c.021-1.738-.255-3.414-1.095-4.937-1.392-2.528-3.575-3.562-6.301-3.384-2.62.172-4.415 1.62-5.33 4.147-1.016 2.802-1.033 5.66.026 8.447.972 2.546 2.885 3.9 5.506 4.04 2.518.134 4.576-.852 5.938-3.118.955-1.581 1.273-3.35 1.257-5.195zM58.44 33.89l2.566-1.939c.093.102.18.208.263.319 2.42 3.763 7.173 4.77 10.762 3.677 2.679-.814 4.102-2.937 3.885-5.724-.106-1.356-.706-2.479-1.867-3.01-1.719-.79-3.533-1.358-5.314-2.01-1.848-.678-3.775-1.182-5.538-2.044-5.366-2.626-4.81-10.04-.399-12.818 4.923-3.102 12.333-1.685 15.74 3.205l-2.426 1.97c-1.216-1.591-2.688-2.714-4.516-3.249-2.3-.672-4.576-.653-6.739.53-1.861 1.018-2.69 3.049-2.124 5.036.273.956.831 1.731 1.674 2.145a37.792 37.792 0 003.827 1.557c1.973.701 3.995 1.262 5.942 2.03.96.395 1.85.955 2.632 1.656 3.415 3.02 3.114 8.897-.561 11.95-1.586 1.318-3.43 1.992-5.42 2.203-4.39.452-8.303-.613-11.365-4.121-.363-.41-.663-.876-1.021-1.362zm123.297-5.185h-15.81c-.415 2.581 1.292 5.866 3.619 7.047a7.517 7.517 0 005.079.576 7.738 7.738 0 004.325-2.82l2.067 1.892a9.68 9.68 0 01-3.33 2.867c-4.213 2.233-9.578 1.286-12.432-2.217-1.82-2.236-2.485-4.895-2.481-7.754 0-3.567.93-6.803 3.676-9.154 2.915-2.496 6.268-2.852 9.722-1.5 3.313 1.297 5.078 3.995 5.548 7.58.14 1.119.017 2.27.017 3.483zm-15.766-2.727h12.765c-.109-3.573-2.634-6.092-6.115-6.155-3.689-.064-6.4 2.421-6.65 6.155zm-35.008-3.829l-1.495-2.353a12.02 12.02 0 015.757-2.652c2.037-.362 4.068-.353 6.032.423 2.29.902 3.68 2.872 3.691 5.38.032 5.182.011 10.363.011 15.546 0 .123-.028.247-.054.472-.814 0-1.624.028-2.42-.026-.147-.01-.376-.337-.398-.538a14.546 14.546 0 01-.019-1.576c-.114 0-.176-.019-.197 0-2.717 2.885-5.984 3.19-9.467 2.027-2.496-.834-3.897-3.064-3.929-5.871-.033-2.758 1.18-4.822 3.719-5.721 1.751-.613 3.634-.833 5.444-1.284a20.245 20.245 0 003.085-.973c.909-.387 1.356-1.2 1.328-2.266-.028-1.064-.537-1.788-1.409-2.247-1.466-.766-3.038-.78-4.616-.57-1.845.254-3.553.914-5.063 2.229zm11.024 5.157c-2.057 1.097-4.266 1.32-6.423 1.773-.767.169-1.522.396-2.257.68a2.551 2.551 0 00-.97.612 2.664 2.664 0 00-.621.987c-.738 2.018.211 4.137 2.179 4.82.491.16.997.267 1.51.319 3.296.412 6.108-1.587 6.549-4.808.192-1.394.033-2.84.033-4.383zm-17.964 11.616h-2.805v-2.926c-.304.319-.463.476-.615.645a8.538 8.538 0 01-4.307 2.59 8.303 8.303 0 01-4.968-.321c-2.484-.979-3.676-3.026-4.118-5.621a14.1 14.1 0 01-.161-2.286c-.014-4.212 0-8.427 0-12.635v-.896h2.908v.795c0 4.008 0 8.015.008 12.024-.006.764.046 1.527.156 2.282.468 2.951 2.27 4.166 5.039 3.92 3.621-.32 6.017-3.19 6.039-7.116.021-3.677 0-7.354 0-11.03v-.886h2.832l-.008 21.461zm26.165.046V17.476h2.828v2.392l.283.207c.095-.198.148-.438.295-.584 2.085-2.133 4.513-3.03 7.399-2.113 1.048.334 1.045.4.696 1.439-.192.571-.382 1.143-.518 1.55-1.161-.105-2.242-.387-3.277-.26-2.453.306-4.19 2.298-4.645 5.13-.13.883-.193 1.774-.187 2.667a763.56 763.56 0 000 10.265c0 .626-.157.868-.784.818-.678-.062-1.364-.019-2.09-.019z"/><path fill-rule="evenodd" clip-rule="evenodd" d="M18.403.414c-9.942 0-18 8.059-18 18v11.172c0 9.941 8.058 18 18 18h9.5c9.94 0 18-8.059 18-18V18.414c0-9.941-8.06-18-18-18h-9.5zM15.456 8.69a7 7 0 00-7 7v16.62a7 7 0 007 7h15.393a7 7 0 007-7V15.69a7 7 0 00-7-7H15.456z"/><rect x="16.911" y="17.379" width="12.482" height="13.241" rx="4"/></g><defs><clipPath id="ta"><path d="M0 0h182v48H0z"/></clipPath></defs></svg><svg viewBox="0 0 297 232" id="thanks" xmlns="http://www.w3.org/2000/svg"><path opacity=".7" d="M141.606 95.79h24.556"/><path d="M171.268 63.751c-1.26 4.162-10.463 9.09-16.121 6.315"/><ellipse cx="138.537" cy="59.504" rx="3.069" ry="3.075"/><ellipse cx="164.32" cy="54.584" rx="3.069" ry="3.075"/><path d="M154 167.374L141.062 229H98l6.268-5.29a12.3 12.3 0 004.241-7.647L115.86 165m38.14 2.374V229h43l-4.955-4.189a12.3 12.3 0 01-4.313-10.475L192.086 165M41.518 57.054c18.8.033 18.266 12.76-2.257 7.864 6.007 1.68 15.145 3.604 12.345 8.32-2.8 4.716-13.59-.31-13.59-.31 7.618 4.162 9.607 7.313 6.978 9.598-1.149.999-3.11 1.39-5.387 1.209m54.093-2.12c-24.573 11.83-30.585-6.635-32.511-15.51-1.926-8.873 4.765-34.372-3.772-35.65-6.865-1.028-9.001 7.687-8.465 21.318-3.788-1.771-20.805-1.753-24.588 13.262-2.892 11.481 7.845 18.11 15.243 18.7m49.744 28.484c-21.6 4.683-41.767-2.506-49.744-28.484m167.075 29.942c5.816 3.433 9.409 4.266 16.531 3.403-6.212 3.797-9.002 6.101-12.258 10.636m7.515-52.443c12.952 3.735 38.732 15.844 38.233 34.404-.347 12.892-9.714 21.842-18.597 27.068m-23.937 14.59c5.466 4.286 17.854 11.054 23.678 3.843 2.219-2.747 2.096-5.16.77-7.181m-.511-11.252c-3.904 2.298-7.715 3.876-10.626 4.753 3.642.963 8.98 3.214 11.137 6.499m-.511-11.252c6.54 2.41 5.165 9.673.511 11.252"/></svg><svg viewBox="0 0 46 46" id="tikTok" xmlns="http://www.w3.org/2000/svg"><path d="M32.839.635h-7.63v30.837c0 3.674-2.934 6.692-6.586 6.692s-6.586-3.018-6.586-6.692c0-3.609 2.87-6.561 6.39-6.692v-7.742c-7.76.13-14.02 6.495-14.02 14.434 0 8.004 6.391 14.434 14.281 14.434 7.89 0 14.281-6.495 14.281-14.434V15.66c2.87 2.1 6.39 3.346 10.107 3.412V11.33C37.338 11.133 32.84 6.409 32.84.635z"/></svg><svg viewBox="0 0 46 46" id="twitter" xmlns="http://www.w3.org/2000/svg"><path d="M14.872 41.663c17.083 0 26.427-14.153 26.427-26.427 0-.402 0-.802-.027-1.2a18.896 18.896 0 004.634-4.808 18.513 18.513 0 01-5.335 1.461 9.319 9.319 0 004.084-5.137 18.609 18.609 0 01-5.898 2.254 9.297 9.297 0 00-15.829 8.471A26.37 26.37 0 013.786 6.573a9.295 9.295 0 002.876 12.399 9.206 9.206 0 01-4.216-1.163v.118a9.29 9.29 0 007.452 9.105 9.27 9.27 0 01-4.194.159 9.3 9.3 0 008.677 6.45 18.633 18.633 0 01-13.746 3.85 26.297 26.297 0 0014.237 4.165"/></svg><svg viewBox="0 0 202 83" id="why-3" xmlns="http://www.w3.org/2000/svg"><path opacity=".7" d="M130.231 81.673h26.616"/><path d="M162.382 47.01c-1.366 4.502-11.342 9.835-17.474 6.832"/><circle cx="126.904" cy="42.414" r="3.327"/><circle cx="154.851" cy="37.09" r="3.327"/><path d="M21.743 39.763c20.378.035 19.8 13.806-2.446 8.509 6.511 1.817 16.416 3.899 13.38 9.002-3.035 5.102-14.73-.336-14.73-.336 8.257 4.504 10.414 7.913 7.565 10.385-1.246 1.08-3.372 1.504-5.84 1.307m58.632-2.293c-26.634 12.8-33.152-7.18-35.24-16.78-2.087-9.601 5.166-37.19-4.087-38.573-7.442-1.112-9.757 8.317-9.175 23.065C25.695 32.133 7.25 32.152 3.15 48.4.015 60.82 11.653 67.992 19.672 68.63M73.59 99.45c-23.413 5.066-45.272-2.712-53.92-30.82"/></svg><svg viewBox="0 0 125 60" id="woo_commerce" xmlns="http://www.w3.org/2000/svg"><path d="M21.54 60c-.53-.084-1.064-.144-1.587-.258-2.39-.523-4.098-1.932-4.992-4.207-1.315-3.35-1.405-6.791-.237-10.194 1.035-3.009 3.549-4.759 6.7-4.791.968-.024 1.936.069 2.882.276 2.6.612 4.278 2.32 5.068 4.844.96 3.068.966 6.183-.075 9.232-1.024 3-3.133 4.731-6.324 5.009-.122.02-.242.05-.359.088L21.54 60zm-2.44-9.917c.183 1.398.283 2.624.52 3.823.173.872.722 1.53 1.64 1.764 1.411.359 2.66-.394 3.075-1.91.415-1.54.54-3.146.366-4.733a13.389 13.389 0 00-.583-2.737 2.152 2.152 0 00-.654-1.016 2.126 2.126 0 00-1.095-.5c-1.263-.206-2.245.336-2.626 1.688-.342 1.22-.454 2.506-.643 3.621zm105.754 9.374c-1.815.01-3.63.025-5.446.031-1.513.006-3.016 0-4.559 0v-18.41c.117-.023.236-.039.355-.046h9.226c.142.009.284.026.424.052v3.914h-5.05v3.376h4.277v3.818h-4.282v3.348h5.055v3.917zM110.065 60c-.743-.123-1.497-.196-2.223-.379a8.966 8.966 0 01-4.573-2.817 9.084 9.084 0 01-2.165-4.94c-.229-1.934-.204-3.855.58-5.663 1.548-3.554 4.322-5.417 8.142-5.633 1.171-.065 2.357.109 3.566.18v4.496l-1.591-.276c-3.466-.606-5.294 1.992-5.5 4.512-.083 1.036-.015 2.069.342 3.049.764 2.116 2.736 3.285 5.009 2.96.567-.082 1.128-.205 1.772-.327v4.393l-2.377.435-.982.01zM9.557 60c-.636-.102-1.278-.175-1.907-.31-3.83-.827-6.64-4.012-7.059-7.95-.15-1.415-.157-2.82.175-4.21.965-4.03 4.395-6.843 8.58-6.964 1.174-.034 2.353.12 3.545.19v4.488c-.534-.091-1.056-.179-1.577-.27-3.476-.615-5.342 1.986-5.524 4.604-.077 1.094.019 2.178.445 3.198.816 1.96 2.73 3.03 4.903 2.722.568-.08 1.13-.203 1.736-.314v4.391l-2.345.43L9.557 60zm58.749-27.007l2.566 6.37c-.361-.193-.589-.312-.812-.435-3.35-1.876-6.685-3.761-10.042-5.617a2.63 2.63 0 00-1.215-.307c-8.185-.017-16.37-.021-24.557-.013-3.105 0-5.527-1.98-6.135-5.037a6.654 6.654 0 01-.079-1.297c-.005-6.72.042-13.443-.022-20.163C27.978 3.14 30.326.782 32.8.314a7.86 7.86 0 011.443-.158c17.72-.008 35.44-.008 53.16 0 3.069 0 5.478 1.918 6.135 4.918.12.622.175 1.255.162 1.888.011 6.413.013 12.826.005 19.239 0 1.586-.264 3.096-1.278 4.39-1.228 1.565-2.839 2.39-4.8 2.396-6.17.027-12.341.01-18.512.01l-.81-.004zm-23.32-15.232c.05.062.08.083.091.11.03.084.053.172.08.258 1.004 3.266 2.25 6.424 4.321 9.17.615.815 1.291 1.627 2.085 2.255 1.418 1.118 3.026.422 3.35-1.36a5.04 5.04 0 00.031-.87c0-1.287-.086-2.581.028-3.858.216-2.407.484-4.816.854-7.204.493-3.18 1.09-6.34 2.544-9.262.422-.85.316-1.709-.299-2.437-.648-.776-1.497-1.09-2.512-.85-.756.174-1.198.687-1.53 1.342-1.58 3.117-2.274 6.494-2.836 9.91-.236 1.43-.403 2.873-.614 4.407-.09-.223-.154-.352-.192-.487-.608-2.134-1.228-4.266-1.812-6.407-.26-.955-.367-1.96-.688-2.891-.54-1.558-2.292-1.883-3.42-.675a4.747 4.747 0 00-.701 1.022c-1.132 2.141-2.245 4.293-3.365 6.44-.783 1.5-1.568 3.001-2.377 4.544a2.191 2.191 0 01-.115-.308c-.838-4.469-1.674-8.938-2.506-13.408-.153-.822-.223-1.7-1.061-2.142-.935-.49-1.9-.418-2.756.183-.801.562-1.024 1.425-.87 2.362.44 2.69.827 5.39 1.382 8.058.75 3.603 1.6 7.187 2.486 10.758.244.98.69 1.943 1.195 2.83.531.935 1.404 1.08 2.251.427.575-.446 1.151-.98 1.513-1.595 1.08-1.832 2.08-3.716 3.072-5.602.819-1.549 1.575-3.129 2.37-4.72zm45.479-2.463c-.034-1.331-.196-2.669-.659-3.96-1.064-2.977-3.442-4.746-6.404-4.764-2.49-.015-4.371 1.141-5.804 3.101-2.352 3.218-3.171 6.846-2.63 10.772.261 1.899.984 3.636 2.428 4.964 2.775 2.554 7.22 2.227 9.734-.735 2.276-2.68 3.257-5.854 3.335-9.378zm-25.413 11.83c.34-.025.682-.028 1.02-.077 2.13-.314 3.685-1.524 4.882-3.255a14.36 14.36 0 002.471-6.401c.279-2.148.185-4.247-.578-6.294-1.903-5.105-8.176-5.955-11.33-2.329-3.488 4.01-4.485 8.664-2.85 13.746.957 2.973 3.395 4.589 6.385 4.61zM36.357 47.12l-1.232 12.337H30.44l2.33-18.391h6.287L41.13 51.12c.318-1.577.599-3.072.922-4.557.374-1.714.778-3.42 1.188-5.125.038-.157.245-.389.375-.39 2.013-.025 4.027-.017 6.113-.017.83 6.145 1.65 12.271 2.48 18.458h-3.44c-1.478 0-1.475 0-1.62-1.477-.371-3.62-.745-7.239-1.189-10.882-.044.136-.097.269-.13.407-.931 3.83-1.857 7.661-2.779 11.493-.084.352-.216.478-.57.467a36.093 36.093 0 00-2.377 0c-.392.014-.556-.103-.649-.501-.95-3.844-1.926-7.681-2.895-11.52-.03-.118-.073-.235-.108-.352l-.094-.004zm22.413-.025c-.41 4.102-.818 8.204-1.231 12.349H52.86c.155-1.245.304-2.477.46-3.703.527-4.167 1.055-8.334 1.584-12.5.075-.593.16-1.184.216-1.778.03-.304.128-.442.463-.435 1.816.014 3.634.023 5.45-.006.467-.008.47.29.53.576.622 3.029 1.243 6.058 1.86 9.087a.328.328 0 00.167.237c.194-.998.368-2 .586-2.993.473-2.154.972-4.301 1.447-6.455.078-.355.234-.452.582-.447 1.818.015 3.634.015 5.45 0 .36 0 .483.102.532.475.766 5.795 1.543 11.588 2.33 17.379.024.176.026.355.043.573h-4.87c-.431-4.107-.86-8.219-1.288-12.335l-.09-.008-2.972 12.38c-1.054 0-2.077.015-3.098-.02-.123 0-.302-.26-.347-.43-.616-2.379-1.213-4.763-1.815-7.146l-1.201-4.784-.109-.016z"/><path d="M92.448 59.458h-4.931V41.095a.597.597 0 01.157-.053c2.532.047 5.067.049 7.597.166 1.154.054 2.237.506 3.215 1.157a5.02 5.02 0 01-.284 8.602c-.108.062-.216.12-.4.218 1.297 2.741 2.593 5.47 3.924 8.276-.241.013-.41.03-.579.03-1.367 0-2.733-.016-4.106.01-.398.008-.6-.117-.771-.483-1.149-2.454-2.323-4.9-3.49-7.339a1.12 1.12 0 00-.337-.45l.005 8.229zm-.014-10.397c.747-.16 1.45-.257 2.12-.464.67-.207 1.08-.716 1.12-1.439.038-.762-.085-1.496-.766-1.974-.736-.517-1.59-.552-2.474-.581v4.458zm-7.084-.711v3.469c0 .109-.011.211-.02.37h-4.31v3.383h4.988c.026.153.045.307.056.462v3.044c0 .251 0 .46-.352.46-3.185-.015-6.368-.017-9.551-.024-.015 0-.03-.017-.093-.054V41.11h9.912v3.88h-4.974v3.36h4.345zm.418-33.088c-.038 2.237-.433 3.987-1.58 5.466a5.567 5.567 0 01-1.494 1.293c-.905.545-1.77.296-2.313-.615-.772-1.293-1.024-2.7-.875-4.21a8.8 8.8 0 011.91-4.69c.258-.325.561-.609.9-.844.964-.666 1.981-.435 2.586.57.628 1.048.9 2.195.866 3.03zm-16.862.397c-.07 1.914-.472 3.73-1.724 5.24a5.238 5.238 0 01-1.31 1.107c-.915.553-1.8.314-2.369-.6-.815-1.306-1.016-2.768-.872-4.272a8.47 8.47 0 011.82-4.505 4.685 4.685 0 011.048-.998c.94-.625 1.92-.4 2.508.563a6.175 6.175 0 01.899 3.465z"/></svg></svg>